<?xml version="1.0" encoding="UTF-8" standalone="no"?>
<svg width="244px" height="228px" viewBox="0 0 244 228" version="1.1" xmlns="http://www.w3.org/2000/svg" xmlns:xlink="http://www.w3.org/1999/xlink" xmlns:sketch="http://www.bohemiancoding.com/sketch/ns">
    <!-- Generator: Sketch 3.4.2 (15857) - http://www.bohemiancoding.com/sketch -->
    <title>Group</title>
    <desc>Created with Sketch.</desc>
    <defs></defs>
    <g id="Page-1" stroke="none" stroke-width="1" fill="none" fill-rule="evenodd" sketch:type="MSPage">
        <g id="Group" sketch:type="MSLayerGroup" transform="translate(0.000000, 3.000000)">
            <path d="M104.053346,28.9613487 C101.991682,28.4527266 99.9051795,28.9613487 98.8867673,30.0034038 C97.3343098,31.554081 96.8251037,33.6133804 97.8435159,35.1640576 L101.991682,47.5694754 L94.2293946,57.9155938 C93.1861432,59.466271 92.6769371,61.5255704 93.7201886,63.6096806 C94.76344,65.1603578 96.3158976,66.2024129 98.3775613,66.711035 L111.306428,66.711035 L118.55951,77.5657756 C119.602761,79.1164528 121.155219,79.6250749 122.707676,79.6250749 L123.216882,79.6250749 C125.278546,79.1164528 126.831004,78.0743977 127.365049,76.0150984 L131.513216,63.6096806 L143.932876,59.999704 C145.99454,59.4910819 147.037791,57.9404046 147.546997,55.8562945 C148.056203,53.7969951 147.037791,51.7128849 145.485334,50.6956407 L135.127337,42.9422545 L135.636543,30.0282146 C135.636543,27.9689153 134.593291,26.418238 133.040834,25.3761829 C131.488376,24.3341278 129.426713,24.8675608 127.34021,25.8848051 L116.982213,33.6381912 L104.053346,28.9613487 Z" id="Path" stroke="#ABB5BD" stroke-width="5" sketch:type="MSShapeGroup"></path>
            <path d="M197.2008,59.9748932 C195.139136,59.466271 193.052633,59.9748932 192.034221,61.0169483 C190.481764,62.5676255 189.972558,64.6269248 190.99097,66.1776021 L195.139136,78.5830198 L187.376849,88.9291383 C186.333597,90.4798155 185.824391,92.5391149 186.867642,94.6232251 C187.910894,96.1739023 189.463352,97.2159574 191.525015,97.7245795 L204.453882,97.7245795 L211.706964,108.57932 C212.750215,110.129997 214.302673,110.638619 215.85513,110.638619 L216.364336,110.638619 C218.426,110.129997 219.978457,109.087942 220.512503,107.028643 L224.660669,94.6232251 L237.08033,91.0132485 C239.141994,90.5046263 240.185245,88.9539491 240.694451,86.8698389 C241.203657,84.8105396 240.185245,82.7264294 238.632788,81.7091851 L228.274791,73.955799 L228.783997,61.0417591 C228.783997,58.9824597 227.740745,57.4317825 226.188288,56.3897274 C224.63583,55.3476723 222.574166,55.8811053 220.487664,56.8983495 L210.129667,64.6517357 L197.2008,59.9748932 Z" id="Path-Copy" stroke="#FF4F00" stroke-width="5" sketch:type="MSShapeGroup"></path>
            <path d="M141.312328,171.623653 C139.250664,171.115031 137.164161,171.623653 136.145749,172.665708 C134.593291,174.216386 134.084085,176.275685 135.102497,177.826362 L139.250664,190.23178 L131.488376,200.577898 C130.445125,202.128576 129.935919,204.187875 130.97917,206.271985 C132.022422,207.822662 133.574879,208.864717 135.636543,209.37334 L148.565409,209.37334 L155.818491,220.22808 C156.861743,221.778757 158.4142,222.28738 159.966658,222.28738 L160.475864,222.28738 C162.537528,221.778757 164.089985,220.736702 164.62403,218.677403 L168.772197,206.271985 L181.191858,202.662009 C183.253521,202.153386 184.296773,200.602709 184.805979,198.518599 C185.315185,196.4593 184.296773,194.37519 182.744315,193.357945 L172.386318,185.604559 L172.895524,172.690519 C172.895524,170.63122 171.852273,169.080543 170.299815,168.038488 C168.747358,166.996432 166.685694,167.529865 164.599191,168.54711 L154.241194,176.300496 L141.312328,171.623653 Z" id="Path-Copy-2" stroke="#ABB5BD" stroke-width="5" sketch:type="MSShapeGroup"></path>
            <path d="M0,218.617906 C0,218.617906 55.8884723,193.807071 62.0983026,156.590817 C68.3081329,119.374564 37.2589816,93.040633 24.839321,119.374564 C12.4196605,145.708496 24.839321,224.820616 186.294908,119.374564" id="Path-7708" stroke="#FF4F00" sketch:type="MSShapeGroup"></path>
            <ellipse id="Oval-79" stroke="#ABB5BD" stroke-width="5" sketch:type="MSShapeGroup" cx="130.406435" cy="111.64876" rx="12.4196605" ry="12.4054178"></ellipse>
            <ellipse id="Oval-79-Copy" stroke="#ABB5BD" stroke-width="5" sketch:type="MSShapeGroup" cx="198.714568" cy="12.4054178" rx="12.4196605" ry="12.4054178"></ellipse>
        </g>
    </g>
</svg>