<?xml version="1.0" encoding="UTF-8" standalone="no"?>
<svg width="391px" height="191px" viewBox="0 0 391 191" version="1.1" xmlns="http://www.w3.org/2000/svg" xmlns:xlink="http://www.w3.org/1999/xlink" xmlns:sketch="http://www.bohemiancoding.com/sketch/ns">
    <!-- Generator: Sketch 3.4.2 (15857) - http://www.bohemiancoding.com/sketch -->
    <title>Imported Layers + Path 63</title>
    <desc>Created with Sketch.</desc>
    <defs></defs>
    <g id="Page-1" stroke="none" stroke-width="1" fill="none" fill-rule="evenodd" sketch:type="MSPage">
        <g id="no-twitter" sketch:type="MSArtboardGroup" transform="translate(0.000000, -44.000000)">
            <g id="Mask-+-Imported-Layers-+-Path-63" sketch:type="MSLayerGroup" transform="translate(0.000000, 27.000000)">
                <g id="Imported-Layers-+-Path-63" transform="translate(-143.000000, -31.000000)" sketch:type="MSShapeGroup">
                    <path d="M507.403675,174.107432 L490.110524,190.957178 C490.101089,190.966735 490.087985,190.971513 490.07855,190.980008 L485.284041,195.65421 L528.510104,232.739368 L507.403675,174.107432 L507.403675,174.107432 Z M453.902989,221.174911 L525.02862,234.20948 L470.611176,207.595619 L453.902989,221.174911 L453.902989,221.174911 Z M482.811569,195.929757 C482.534287,195.673323 471.495437,182.047311 471.495437,182.047311 L471.495437,206.014545 C471.495437,206.024102 471.495437,206.02888 471.490719,206.038437 L525.115631,232.264196 C525.115631,232.264196 483.087278,196.191499 482.811569,195.929757 L482.811569,195.929757 Z M484.276077,191.666485 L486.159915,189.827915 L477.984562,184.29628 L484.276077,191.666485 L484.276077,191.666485 Z M533.037291,238.444082 C532.628444,238.910759 532.010457,239.125781 531.403478,239.018005 L449.454427,224.00258 C448.773016,223.876222 448.224743,223.359107 448.053866,222.681656 C447.884038,222.001019 448.12358,221.282156 448.662418,220.844149 L467.958916,205.160829 L467.958916,176.542222 C467.958916,175.861585 468.340506,175.242004 468.939623,174.938849 C469.543458,174.635164 470.261035,174.704715 470.795156,175.115645 L488.738268,187.318797 L507.022085,169.503841 C507.358073,169.177858 507.799941,169 508.251769,169 C508.399058,169 508.546348,169.019113 508.693637,169.056277 C509.292755,169.215022 509.76188,169.672142 509.941143,170.269425 L533.406301,236.741959 C533.590282,237.329685 533.447709,237.977936 533.037291,238.444082 L533.037291,238.444082 Z" id="Imported-Layers" fill="#ABB5BD"></path>
                    <path d="M0,0 C0,0 67.5420106,23.0256854 170.390072,58.3317364 C254.357408,87.1563441 337.710053,116.663468 331.56987,159.644747 C325.429687,202.626027 202.626032,167.319977 202.626032,122.803652 C202.626032,99.3260768 256.423239,102.747104 312.227051,113.476377 C362.234022,123.091105 431.34784,153.504564 463.5838,173.460158" id="Path-63" stroke="#FF4F00" stroke-dasharray="2"></path>
                </g>
            </g>
        </g>
    </g>
</svg>