<?xml version="1.0" encoding="UTF-8" standalone="no"?>
<svg width="188px" height="179px" viewBox="0 0 188 179" version="1.1" xmlns="http://www.w3.org/2000/svg" xmlns:xlink="http://www.w3.org/1999/xlink" xmlns:sketch="http://www.bohemiancoding.com/sketch/ns">
    <!-- Generator: Sketch 3.4.2 (15857) - http://www.bohemiancoding.com/sketch -->
    <title>Rectangle 139</title>
    <desc>Created with Sketch.</desc>
    <defs>
        <path d="M183.330089,113.58753 L183.330089,113.55253 C183.330089,113.53253 183.315089,113.51253 183.315089,113.49253 C183.275089,113.19753 183.195089,112.92753 183.060089,112.65253 C183.020089,112.57253 182.980089,112.49753 182.940089,112.41753 C182.885089,112.33753 182.865089,112.22253 182.785089,112.14253 L171.670089,97.7125297 C171.280089,97.2025297 170.715089,96.8525297 170.070089,96.7175297 L159.835089,94.7225297 L176.435089,92.8075297 C177.375089,92.6925297 178.195089,92.1075297 178.565089,91.2275297 L184.775089,77.0675297 C184.795089,77.0275297 184.775089,76.9875297 184.795089,76.9475297 C184.935089,76.5775297 185.030089,76.1875297 184.990089,75.7575297 L180.870089,29.1175297 C180.755089,27.8275297 179.740089,26.8125297 178.450089,26.6975297 C177.120089,26.5575297 175.970089,27.4375297 175.655089,28.6875297 L164.095089,73.6875297 L149.310089,73.9825297 L162.670089,65.7575297 C163.255089,65.3875297 163.665089,64.8225297 163.840089,64.1575297 L167.435089,50.3075297 L167.435089,50.2675297 L167.435089,50.1925297 C167.510089,49.8225297 167.510089,49.4275297 167.435089,49.0375297 C167.395089,48.9025297 167.355089,48.8025297 167.315089,48.6675297 C167.260089,48.5325297 167.260089,48.3925297 167.180089,48.2775297 L140.540089,1.36252969 C139.875089,0.192529695 138.450089,-0.297470305 137.220089,0.212529695 C135.990089,0.717529695 135.325089,2.06752969 135.675089,3.37752969 L148.860089,51.3025297 L129.620089,56.6975297 L132.080089,50.8775297 C132.355089,50.2125297 132.355089,49.4675297 132.080089,48.8025297 L113.490089,4.66252969 C113.080089,3.68752969 112.100089,3.04252969 111.045089,3.04252969 L76.2400885,3.04252969 C75.1700885,3.04252969 74.2100885,3.68752969 73.8000885,4.66252969 L55.2050885,48.8025297 C54.9350885,49.4675297 54.9350885,50.2125297 55.2050885,50.8775297 L57.6700885,56.6975297 L38.4300885,51.3025297 L51.6150885,3.37752969 C51.9650885,2.08752969 51.3000885,0.737529695 50.0700885,0.212529695 C48.8200885,-0.317470305 47.3950885,0.172529695 46.7500885,1.36252969 L20.1100885,48.2775297 C20.0300885,48.4125297 20.0300885,48.5525297 19.9750885,48.6675297 C19.9350885,48.7875297 19.8750885,48.9025297 19.8550885,49.0375297 C19.7750885,49.4275297 19.7600885,49.8025297 19.8550885,50.1925297 L19.8550885,50.2675297 L19.8550885,50.3075297 L19.8550885,50.3075297 L23.4500885,64.1575297 C23.6250885,64.8225297 24.0350885,65.3875297 24.6200885,65.7575297 L37.7450885,73.8425297 L23.1550885,73.6075297 L11.6150885,28.6875297 C11.2800885,27.4375297 10.1500885,26.5575297 8.82008854,26.6975297 C7.53008854,26.7925297 6.49508854,27.8275297 6.40008854,29.1175297 L2.29508854,75.7575297 L2.29508854,75.7575297 L2.29508854,75.7575297 C2.26008854,76.1875297 2.35508854,76.5775297 2.49008854,76.9275297 C2.51008854,76.9675297 2.49008854,77.0075297 2.51008854,77.0475297 L8.72508854,91.2075297 C9.11508854,92.0675297 9.91508854,92.6725297 10.8500885,92.7875297 L27.4550885,94.7025297 L17.2200885,96.6975297 C16.5750885,96.8125297 16.0100885,97.1625297 15.6150885,97.6925297 L4.52508854,112.12753 C4.46508854,112.20253 4.42508854,112.30253 4.38508854,112.37753 C4.35008854,112.45753 4.29008854,112.53753 4.25008854,112.61253 C4.13508854,112.88753 4.03508854,113.16253 4.01508854,113.45253 C4.01508854,113.47253 3.99508854,113.49253 3.99508854,113.51253 L3.99508854,113.55253 L0.0100885415,160.97253 C-0.104911458,162.28253 0.775088542,163.47253 2.04508854,163.78753 C2.26008854,163.82253 2.45508854,163.86253 2.65008854,163.86253 C3.72508854,163.86253 4.70008854,163.21753 5.11008854,162.20253 L24.3100885,114.44753 C28.3500885,114.01753 32.4350885,113.57253 36.4000885,113.14253 L26.3400885,119.23253 C25.6550885,119.64253 25.1850885,120.34753 25.0900885,121.14753 L23.4300885,133.08253 C23.4100885,133.17753 23.4700885,133.25753 23.4700885,133.35753 C23.4700885,133.53253 23.4300885,133.70753 23.4500885,133.88253 C23.4500885,133.88253 25.2450885,144.58753 27.0800885,155.30753 C29.0750885,166.96753 30.0900885,172.90753 30.9100885,175.93253 C30.9100885,176.05253 30.8900885,176.14753 30.8900885,176.20753 L30.9900885,176.20753 C31.6700885,178.57253 32.2400885,178.94253 33.1350885,178.94253 C33.3300885,178.94253 33.5250885,178.92253 33.7600885,178.90253 C35.0900885,178.78753 36.1250885,177.57253 36.2050885,176.26753 C36.3200885,174.33253 40.2850885,149.29253 43.1150885,131.87253 L71.7900885,124.60753 L77.2750885,135.21253 C77.7250885,136.08753 78.6450885,136.65753 79.6400885,136.65753 L107.765089,136.65753 C108.760089,136.65753 109.680089,136.10753 110.130089,135.21253 L115.615089,124.60753 L144.290089,131.87253 C147.100089,149.29253 151.085089,174.33253 151.185089,176.18753 C151.185089,177.57253 152.260089,178.78753 153.625089,178.90253 C153.860089,178.92253 154.055089,178.94253 154.250089,178.94253 C155.150089,178.94253 155.715089,178.55253 156.400089,176.18753 L156.495089,176.18753 C156.495089,176.12753 156.495089,176.03253 156.475089,175.91253 C157.295089,172.90753 158.315089,166.94753 160.305089,155.30753 C162.140089,144.60753 163.935089,133.88253 163.935089,133.88253 C163.975089,133.70753 163.920089,133.53253 163.920089,133.35753 C163.920089,133.25753 163.955089,133.17753 163.955089,133.08253 L162.295089,121.14753 C162.180089,120.34753 161.730089,119.66253 161.045089,119.23253 L150.990089,113.14253 C154.955089,113.57253 159.035089,114.00253 163.080089,114.44753 L182.295089,162.20253 C182.705089,163.21753 183.705089,163.86253 184.760089,163.86253 C184.955089,163.86253 185.170089,163.84253 185.365089,163.78753 C186.635089,163.47253 187.510089,162.28253 187.395089,160.97253 L183.330089,113.58753 Z M174.760089,110.44753 C144.565089,107.04753 131.400089,105.69753 125.460089,105.42753 L131.065089,94.5875297 L168.100089,101.79253 L174.760089,110.44753 Z M174.330089,87.7325297 L144.015089,91.2475297 C143.705089,91.2875297 143.430089,91.3825297 143.155089,91.5175297 L132.025089,89.3525297 L130.930089,79.7425297 L139.600089,79.5675297 L178.235089,78.7875297 L174.330089,87.7325297 Z M176.945089,45.0725297 L179.445089,73.4325297 L169.600089,73.6275297 L176.945089,45.0725297 Z M158.955089,61.8325297 L138.840089,74.2325297 L130.325089,74.4125297 L128.955089,62.4975297 L152.805089,55.7975297 L152.805089,55.7975297 L161.125089,53.4525297 L158.955089,61.8325297 Z M146.420089,22.5925297 L160.870089,48.0225297 L153.935089,49.9775297 L146.420089,22.5925297 Z M126.730089,49.9375297 L96.6500885,120.95253 L96.6500885,8.47252969 L109.250089,8.47252969 L126.730089,49.9375297 Z M78.0000885,8.47252969 L91.3400885,8.47252969 L91.3400885,122.71253 L60.5200885,49.9575297 L78.0000885,8.47252969 Z M33.2950885,49.9575297 L26.3600885,48.0025297 L40.8150885,22.5725297 L33.2950885,49.9575297 Z M47.6500885,73.7675297 L28.2950885,61.8325297 L26.1050885,53.4725297 L58.2950885,62.4975297 L56.9450885,74.1975297 L47.9400885,74.0575297 C47.8450885,73.9625297 47.7650885,73.8425297 47.6500885,73.7675297 L47.6500885,73.7675297 Z M7.80508854,73.4125297 L10.3050885,45.0725297 L17.6300885,73.5725297 L7.80508854,73.4125297 Z M43.2350885,91.2275297 L12.9400885,87.7125297 L9.01508854,78.7475297 L56.3600885,79.5075297 L55.2250885,89.3325297 L44.0950885,91.5025297 C43.8200885,91.3825297 43.5450885,91.2675297 43.2350885,91.2275297 L43.2350885,91.2275297 Z M19.1500885,101.77253 L56.1850885,94.5675297 L61.7900885,105.42753 C55.8300885,105.69753 42.6700885,107.04753 12.4900885,110.44753 L19.1500885,101.77253 Z M6.71008854,143.86253 L9.03508854,116.16753 C11.9450885,115.83753 15.0500885,115.50253 18.2750885,115.13253 L6.71008854,143.86253 Z M33.1950885,159.97753 C31.8650885,152.32253 30.3250885,143.19753 29.0350885,135.46753 L37.4550885,133.33753 C36.3200885,140.21253 34.6000885,150.91253 33.1950885,159.97753 L33.1950885,159.97753 Z M40.1300885,127.16253 C40.1100885,127.16253 40.0700885,127.18253 40.0500885,127.18253 L29.1900885,129.93753 L30.1300885,123.16253 L48.7400885,111.89253 C56.7100885,111.08753 62.7850885,110.54253 64.4450885,110.52253 L69.2300885,119.78253 L40.1300885,127.16253 Z M60.3650885,91.0725297 L62.8850885,69.1575297 L89.2300885,131.38253 L81.1650885,131.38253 L60.3650885,91.0725297 Z M106.065089,131.38253 L98.0000885,131.38253 L124.350089,69.1575297 L126.865089,91.0725297 L106.065089,131.38253 Z M154.055089,159.97753 C152.650089,150.93253 150.910089,140.21253 149.815089,133.33753 L158.235089,135.46753 C156.925089,143.17753 155.385089,152.32253 154.055089,159.97753 L154.055089,159.97753 Z M157.140089,123.17753 L158.080089,129.95753 L147.200089,127.20253 C147.160089,127.20253 147.140089,127.18253 147.120089,127.18253 L118.040089,119.82253 L122.825089,110.56253 C124.485089,110.56253 130.560089,111.12753 138.525089,111.92753 L157.140089,123.17753 Z M168.975089,115.15253 C172.200089,115.50253 175.305089,115.85753 178.215089,116.18753 L180.540089,143.88253 L168.975089,115.15253 Z" id="path-1"></path>
    </defs>
    <g id="Page-1" stroke="none" stroke-width="1" fill="none" fill-rule="evenodd" sketch:type="MSPage">
        <g id="Rectangle-139" sketch:type="MSLayerGroup">
            <mask id="mask-2" sketch:name="Mask" fill="white">
                <use xlink:href="#path-1"></use>
            </mask>
            <use id="Mask" fill="#ABB5BD" sketch:type="MSShapeGroup" xlink:href="#path-1"></use>
            <rect sketch:type="MSShapeGroup" mask="url(#mask-2)" x="-9" y="-27" width="241" height="223"></rect>
        </g>
    </g>
</svg>