<?xml version="1.0" encoding="UTF-8" standalone="no"?>
<svg width="160px" height="159px" viewBox="0 0 160 159" version="1.1" xmlns="http://www.w3.org/2000/svg" xmlns:xlink="http://www.w3.org/1999/xlink" xmlns:sketch="http://www.bohemiancoding.com/sketch/ns">
    <!-- Generator: Sketch 3.4.2 (15857) - http://www.bohemiancoding.com/sketch -->
    <title>blankstate-translate-compass</title>
    <desc>Created with Sketch.</desc>
    <defs></defs>
    <g id="Page-1" stroke="none" stroke-width="1" fill="none" fill-rule="evenodd" sketch:type="MSPage">
        <g id="login-window" sketch:type="MSArtboardGroup" transform="translate(-270.000000, -127.000000)" fill="#ABB5BD">
            <g id="blankstate-translate-compass" sketch:type="MSLayerGroup" transform="translate(270.000000, 127.000000)">
                <path d="M125.053538,158.453061 L80.2289231,110.876735 L0.359384615,123.398367 L45.7550769,77.24 L34.6855385,0.0187755102 L81.8190769,45.6628571 L159.473231,32.842449 L113.417846,78.3738776 L125.053538,158.453061 L125.053538,158.453061 Z M82.0356923,105.633469 L117.942154,143.746939 L108.192,76.637551 L145.060923,40.1844898 L80.1698462,50.8987755 L41.5975385,13.5469388 L50.9710769,78.9395918 L14.2695385,116.257143 L82.0356923,105.633469 L82.0356923,105.633469 Z" id="Fill-1" sketch:type="MSShapeGroup"></path>
                <path d="M80.5661538,79.9412245 L37.0830769,7.40979592 L39.2,6.15591837 L81.4252308,76.5934694 L151.643077,35.4604082 L152.891077,37.5689796 L80.5661538,79.9412245" id="Fill-2" sketch:type="MSShapeGroup"></path>
                <path d="M79.9015385,108.256327 L79.7636923,48.2832653 L82.2252308,48.2783673 L82.3630769,108.251429 L79.9015385,108.256327" id="Fill-3" sketch:type="MSShapeGroup"></path>
                <path d="M48.3741538,79.3142857 L48.352,76.8653061 L110.793846,76.282449 L110.818462,78.7314286 L48.3741538,79.3142857" id="Fill-4" sketch:type="MSShapeGroup"></path>
                <path d="M120.420923,151.693878 L80.5193846,79.9436735 L7.92369231,120.893061 L6.70769231,118.762449 L81.472,76.5910204 L122.574769,150.506122 L120.420923,151.693878" id="Fill-5" sketch:type="MSShapeGroup"></path>
            </g>
        </g>
    </g>
</svg>