<?xml version="1.0" encoding="UTF-8" standalone="no"?>
<svg
   xmlns:sketch="http://www.bohemiancoding.com/sketch/ns"
   xmlns:dc="http://purl.org/dc/elements/1.1/"
   xmlns:cc="http://creativecommons.org/ns#"
   xmlns:rdf="http://www.w3.org/1999/02/22-rdf-syntax-ns#"
   xmlns:svg="http://www.w3.org/2000/svg"
   xmlns="http://www.w3.org/2000/svg"
   xmlns:sodipodi="http://sodipodi.sourceforge.net/DTD/sodipodi-0.dtd"
   xmlns:inkscape="http://www.inkscape.org/namespaces/inkscape"
   width="21"
   height="21"
   viewBox="0 0 21 21"
   version="1.1"
   id="svg2"
   inkscape:version="0.48.3.1 r9886"
   sodipodi:docname="logo.svg">
  <metadata
     id="metadata32">
    <rdf:RDF>
      <cc:Work
         rdf:about="">
        <dc:format>image/svg+xml</dc:format>
        <dc:type
           rdf:resource="http://purl.org/dc/dcmitype/StillImage" />
      </cc:Work>
    </rdf:RDF>
  </metadata>
  <sodipodi:namedview
     pagecolor="#ffffff"
     bordercolor="#666666"
     borderopacity="1"
     objecttolerance="10"
     gridtolerance="10"
     guidetolerance="10"
     inkscape:pageopacity="0"
     inkscape:pageshadow="2"
     inkscape:window-width="1301"
     inkscape:window-height="744"
     id="namedview30"
     showgrid="false"
     inkscape:zoom="11.8"
     inkscape:cx="-1.279661"
     inkscape:cy="10"
     inkscape:window-x="65"
     inkscape:window-y="24"
     inkscape:window-maximized="1"
     inkscape:current-layer="svg2" />
  <!-- Generator: Sketch 3.4.2 (15857) - http://www.bohemiancoding.com/sketch -->
  <title
     id="title4">fat logo</title>
  <desc
     id="desc6">Created with Sketch.</desc>
  <defs
     id="defs8" />
  <g
     id="Page-1"
     sketch:type="MSPage"
     style="fill:none;stroke:none"
     transform="translate(0,0.5074805)">
    <g
       id="speakbridge.io-projects-in-source-sans-pro"
       sketch:type="MSArtboardGroup"
       transform="translate(-31,-13)"
       style="fill:#fb4f0a">
      <g
         id="Bridge-Copy-+-fat-logo-+-Rectangle-5"
         sketch:type="MSLayerGroup"
         transform="translate(31,13)">
        <g
           id="fat-logo"
           sketch:type="MSShapeGroup">
          <g
             id="bridge">
            <g
               id="g15">
              <g
                 id="mark">
                <path
                   d="m 0,0 0,4.0244094 5.6291667,3.6952756 9.3552083,0 L 21,4.0094488 21,0.01496063 20.91979,0.14212598 14.05104,4.5031496 l -7.488542,0 L 0,0 0,0 z"
                   id="Shape"
                   inkscape:connector-curvature="0" />
                <path
                   d="m 6.5625,14.48189 7.488542,0 6.86875,4.361023 0.08021,0.134646 0,-3.994488 -6.015625,-3.717717 -9.3552083,0 L 0,14.96063 l 0,4.024409 6.5625,-4.503149 0,0 z"
                   id="path19"
                   inkscape:connector-curvature="0" />
              </g>
            </g>
          </g>
          <g
             id="bridge-copy"
             transform="translate(0,1)">
            <g
               id="g22">
              <g
                 id="g24">
                <path
                   d="m 0,0 0,4.0244094 5.6291667,3.6952756 9.3552083,0 L 21,4.0094488 21,0.01496063 20.91979,0.14212598 14.05104,4.5031496 l -7.488542,0 L 0,0 0,0 z"
                   id="path26"
                   inkscape:connector-curvature="0" />
                <path
                   d="m 6.5625,14.48189 7.488542,0 6.86875,4.361023 0.08021,0.134646 0,-3.994488 -6.015625,-3.717717 -9.3552083,0 L 0,14.96063 l 0,4.024409 6.5625,-4.503149 0,0 z"
                   id="path28"
                   inkscape:connector-curvature="0" />
              </g>
            </g>
          </g>
        </g>
      </g>
    </g>
  </g>
</svg>
